<svg width="198" height="78" viewBox="0 0 198 78" fill="none" xmlns="http://www.w3.org/2000/svg">
<path d="M40.6395 69.8395C56.7662 69.8395 69.8395 56.7662 69.8395 40.6395C69.8395 24.5127 56.7662 11.4395 40.6395 11.4395C24.5127 11.4395 11.4395 24.5127 11.4395 40.6395C11.4395 56.7662 24.5127 69.8395 40.6395 69.8395Z" fill="#1F4B43"/>
<path d="M8.16211 49.2864C8.16211 49.2864 21.8437 40.4608 36.6237 42.9704C49.7053 45.192 51.6085 43.5208 57.8325 40.82C62.0277 39 63.2085 43.4256 62.6901 44.8504" stroke="white" stroke-miterlimit="10" stroke-linecap="round" stroke-linejoin="round"/>
<path d="M65.3899 51.2058C68.6643 46.8274 63.8947 43.9002 61.5923 45.2458C61.5923 45.2458 53.8563 49.2698 48.5859 49.8258" stroke="white" stroke-miterlimit="10" stroke-linecap="round" stroke-linejoin="round"/>
<path d="M49.6467 55.6367C49.6467 55.6367 55.8627 54.8431 60.7339 51.7471C65.4707 48.7367 70.0083 53.9247 64.8387 57.6999C60.0987 61.1615 54.2667 63.8807 38.2675 66.1671C23.3483 68.2991 20.4595 70.3087 18.2227 71.8367" stroke="white" stroke-miterlimit="10" stroke-linecap="round" stroke-linejoin="round"/>
<path d="M25.2383 48.6096C25.2383 48.6096 28.4999 48.2088 32.6543 51.4352C35.4399 53.296 37.3775 52.7856 39.3895 51.7968C43.1159 49.9648 47.3271 54.9248 41.4655 58.996C35.6039 63.068 26.8407 63.9528 26.8407 63.9528" stroke="white" stroke-miterlimit="10" stroke-linecap="round" stroke-linejoin="round"/>
<path d="M21.252 20.9199L40.172 6.16309L59.652 20.9199" stroke="white" stroke-miterlimit="10" stroke-linecap="round" stroke-linejoin="round"/>
<path d="M55.8778 18.3418V37.1842H25.0234V18.3418" stroke="white" stroke-miterlimit="10" stroke-linecap="round" stroke-linejoin="round"/>
<path d="M37.4638 19.0645H31.2598V27.4133H37.4638V19.0645Z" stroke="white" stroke-miterlimit="10" stroke-linecap="round" stroke-linejoin="round"/>
<path d="M50.7504 25.0391H43.9336V37.0647H50.7504V25.0391Z" stroke="white" stroke-miterlimit="10" stroke-linecap="round" stroke-linejoin="round"/>
<path d="M31.2598 21.8608H37.4638" stroke="white" stroke-miterlimit="10" stroke-linecap="round" stroke-linejoin="round"/>
<path d="M87.728 49V31.12H94.4C95.616 31.12 96.688 31.344 97.616 31.792C98.56 32.224 99.296 32.864 99.824 33.712C100.352 34.544 100.616 35.56 100.616 36.76C100.616 37.944 100.344 38.96 99.8 39.808C99.272 40.64 98.544 41.28 97.616 41.728C96.688 42.176 95.616 42.4 94.4 42.4H90.992V49H87.728ZM90.992 39.52H94.448C95.04 39.52 95.552 39.408 95.984 39.184C96.416 38.944 96.752 38.616 96.992 38.2C97.232 37.784 97.352 37.304 97.352 36.76C97.352 36.2 97.232 35.72 96.992 35.32C96.752 34.904 96.416 34.584 95.984 34.36C95.552 34.12 95.04 34 94.448 34H90.992V39.52ZM103.027 49V35.944H105.979V38.848L105.739 38.416C106.043 37.44 106.515 36.76 107.155 36.376C107.811 35.992 108.595 35.8 109.507 35.8H110.275V38.584H109.147C108.251 38.584 107.531 38.864 106.987 39.424C106.443 39.968 106.171 40.736 106.171 41.728V49H103.027ZM118.387 49.288C117.107 49.288 115.939 48.992 114.883 48.4C113.843 47.808 113.011 47 112.387 45.976C111.779 44.952 111.475 43.784 111.475 42.472C111.475 41.16 111.779 39.992 112.387 38.968C113.011 37.944 113.843 37.136 114.883 36.544C115.923 35.952 117.091 35.656 118.387 35.656C119.667 35.656 120.827 35.952 121.867 36.544C122.907 37.136 123.731 37.944 124.339 38.968C124.963 39.976 125.275 41.144 125.275 42.472C125.275 43.784 124.963 44.952 124.339 45.976C123.715 47 122.883 47.808 121.843 48.4C120.803 48.992 119.651 49.288 118.387 49.288ZM118.387 46.408C119.091 46.408 119.707 46.24 120.235 45.904C120.779 45.568 121.203 45.104 121.507 44.512C121.827 43.904 121.987 43.224 121.987 42.472C121.987 41.704 121.827 41.032 121.507 40.456C121.203 39.864 120.779 39.4 120.235 39.064C119.707 38.712 119.091 38.536 118.387 38.536C117.667 38.536 117.035 38.712 116.491 39.064C115.947 39.4 115.515 39.864 115.195 40.456C114.891 41.032 114.739 41.704 114.739 42.472C114.739 43.224 114.891 43.904 115.195 44.512C115.515 45.104 115.947 45.568 116.491 45.904C117.035 46.24 117.667 46.408 118.387 46.408ZM127.659 53.8V35.944H130.611V38.536L130.323 37.888C130.771 37.184 131.379 36.64 132.147 36.256C132.915 35.856 133.803 35.656 134.811 35.656C136.043 35.656 137.155 35.96 138.147 36.568C139.139 37.176 139.923 37.992 140.499 39.016C141.091 40.04 141.387 41.192 141.387 42.472C141.387 43.736 141.099 44.888 140.523 45.928C139.947 46.968 139.163 47.792 138.171 48.4C137.179 48.992 136.051 49.288 134.787 49.288C133.843 49.288 132.971 49.104 132.171 48.736C131.387 48.352 130.763 47.808 130.299 47.104L130.803 46.48V53.8H127.659ZM134.427 46.408C135.147 46.408 135.787 46.24 136.347 45.904C136.907 45.568 137.339 45.104 137.643 44.512C137.963 43.92 138.123 43.24 138.123 42.472C138.123 41.704 137.963 41.032 137.643 40.456C137.339 39.864 136.907 39.4 136.347 39.064C135.787 38.712 135.147 38.536 134.427 38.536C133.739 38.536 133.115 38.704 132.555 39.04C132.011 39.376 131.579 39.848 131.259 40.456C130.955 41.048 130.803 41.72 130.803 42.472C130.803 43.24 130.955 43.92 131.259 44.512C131.579 45.104 132.011 45.568 132.555 45.904C133.115 46.24 133.739 46.408 134.427 46.408ZM144.048 49V31.12H155.928V34H147.312V38.584H155.448V41.464H147.312V46.12H155.928V49H144.048ZM162.018 49.288C161.106 49.288 160.314 49.136 159.642 48.832C158.97 48.528 158.45 48.096 158.082 47.536C157.714 46.96 157.53 46.296 157.53 45.544C157.53 44.824 157.69 44.184 158.01 43.624C158.33 43.048 158.826 42.568 159.498 42.184C160.17 41.8 161.018 41.528 162.042 41.368L166.314 40.672V43.072L162.642 43.696C162.018 43.808 161.554 44.008 161.25 44.296C160.946 44.584 160.794 44.96 160.794 45.424C160.794 45.872 160.962 46.232 161.298 46.504C161.65 46.76 162.082 46.888 162.594 46.888C163.25 46.888 163.826 46.752 164.322 46.48C164.834 46.192 165.226 45.8 165.498 45.304C165.786 44.808 165.93 44.264 165.93 43.672V40.312C165.93 39.752 165.706 39.288 165.258 38.92C164.826 38.536 164.25 38.344 163.53 38.344C162.858 38.344 162.258 38.528 161.73 38.896C161.218 39.248 160.842 39.72 160.602 40.312L158.034 39.064C158.29 38.376 158.69 37.784 159.234 37.288C159.794 36.776 160.45 36.376 161.202 36.088C161.954 35.8 162.77 35.656 163.65 35.656C164.722 35.656 165.666 35.856 166.482 36.256C167.298 36.64 167.93 37.184 168.378 37.888C168.842 38.576 169.074 39.384 169.074 40.312V49H166.098V46.768L166.77 46.72C166.434 47.28 166.034 47.752 165.57 48.136C165.106 48.504 164.578 48.792 163.986 49C163.394 49.192 162.738 49.288 162.018 49.288ZM176.948 49.288C175.556 49.288 174.34 48.96 173.3 48.304C172.276 47.632 171.572 46.728 171.188 45.592L173.54 44.464C173.876 45.2 174.34 45.776 174.932 46.192C175.54 46.608 176.212 46.816 176.948 46.816C177.524 46.816 177.98 46.688 178.316 46.432C178.652 46.176 178.82 45.84 178.82 45.424C178.82 45.168 178.748 44.96 178.604 44.8C178.476 44.624 178.292 44.48 178.052 44.368C177.828 44.24 177.58 44.136 177.308 44.056L175.172 43.456C174.068 43.136 173.228 42.648 172.652 41.992C172.092 41.336 171.812 40.56 171.812 39.664C171.812 38.864 172.012 38.168 172.412 37.576C172.828 36.968 173.396 36.496 174.116 36.16C174.852 35.824 175.692 35.656 176.636 35.656C177.868 35.656 178.956 35.952 179.9 36.544C180.844 37.136 181.516 37.968 181.916 39.04L179.516 40.168C179.292 39.576 178.916 39.104 178.388 38.752C177.86 38.4 177.268 38.224 176.612 38.224C176.084 38.224 175.668 38.344 175.364 38.584C175.06 38.824 174.908 39.136 174.908 39.52C174.908 39.76 174.972 39.968 175.1 40.144C175.228 40.32 175.404 40.464 175.628 40.576C175.868 40.688 176.14 40.792 176.444 40.888L178.532 41.512C179.604 41.832 180.428 42.312 181.004 42.952C181.596 43.592 181.892 44.376 181.892 45.304C181.892 46.088 181.684 46.784 181.268 47.392C180.852 47.984 180.276 48.448 179.54 48.784C178.804 49.12 177.94 49.288 176.948 49.288ZM190.5 49.288C189.156 49.288 187.98 48.984 186.972 48.376C185.964 47.768 185.18 46.944 184.62 45.904C184.06 44.864 183.78 43.712 183.78 42.448C183.78 41.136 184.06 39.976 184.62 38.968C185.196 37.944 185.972 37.136 186.948 36.544C187.94 35.952 189.044 35.656 190.26 35.656C191.284 35.656 192.18 35.824 192.948 36.16C193.732 36.496 194.396 36.96 194.94 37.552C195.484 38.144 195.9 38.824 196.188 39.592C196.476 40.344 196.62 41.16 196.62 42.04C196.62 42.264 196.604 42.496 196.572 42.736C196.556 42.976 196.516 43.184 196.452 43.36H186.372V40.96H194.676L193.188 42.088C193.332 41.352 193.292 40.696 193.068 40.12C192.86 39.544 192.508 39.088 192.012 38.752C191.532 38.416 190.948 38.248 190.26 38.248C189.604 38.248 189.02 38.416 188.508 38.752C187.996 39.072 187.604 39.552 187.332 40.192C187.076 40.816 186.98 41.576 187.044 42.472C186.98 43.272 187.084 43.984 187.356 44.608C187.644 45.216 188.06 45.688 188.604 46.024C189.164 46.36 189.804 46.528 190.524 46.528C191.244 46.528 191.852 46.376 192.348 46.072C192.86 45.768 193.26 45.36 193.548 44.848L196.092 46.096C195.836 46.72 195.436 47.272 194.892 47.752C194.348 48.232 193.7 48.608 192.948 48.88C192.212 49.152 191.396 49.288 190.5 49.288Z" fill="white"/>
</svg>
